<svg width="30" height="34" viewBox="0 0 30 34" fill="none" xmlns="http://www.w3.org/2000/svg">
<path d="M29.75 7.08333V26.9167C29.75 28.4815 28.4815 29.75 26.9167 29.75H21.6042C21.213 29.75 20.8958 29.4329 20.8958 29.0417V20.5417H24.2108C24.5475 20.5417 24.8377 20.3048 24.905 19.975L25.415 17.425C25.436 17.322 25.4102 17.215 25.3446 17.1329C25.2789 17.0508 25.1801 17.0021 25.075 17H20.8958V12.3958C20.8958 12.2002 21.0544 12.0417 21.25 12.0417H24.7917C25.1829 12.0417 25.5 11.7245 25.5 11.3333V9.20833C25.5 8.81713 25.1829 8.5 24.7917 8.5H21.25C18.9028 8.5 17 10.4028 17 12.75V17H15.2575C14.8663 17 14.5492 17.3171 14.5492 17.7083V19.8333C14.5492 20.2245 14.8663 20.5417 15.2575 20.5417H17V29.0417C17 29.4329 16.6829 29.75 16.2917 29.75H7.08333C5.51853 29.75 4.25 28.4815 4.25 26.9167V7.08333C4.25 5.51853 5.51853 4.25 7.08333 4.25H26.9167C28.4815 4.25 29.75 5.51853 29.75 7.08333Z" fill="white"/>
</svg>
