<svg width="153" height="75" viewBox="0 0 153 75" fill="none" xmlns="http://www.w3.org/2000/svg">
<path d="M103.249 28.1227C103.003 30.1149 102.481 31.8844 101.685 33.4313C100.888 34.9782 99.8975 36.1266 98.7139 36.8766C97.5303 37.6266 96.2178 37.9841 94.7764 37.9489C92.9365 37.902 91.4834 37.2165 90.417 35.8923L88.6768 44.8923H83.7197L88.2725 18.5602L92.8428 18.5427L92.5088 20.4587C93.8799 18.9118 95.4971 18.1618 97.3604 18.2087C99.2236 18.2555 100.671 18.9352 101.702 20.2477C102.733 21.5485 103.284 23.318 103.354 25.5563C103.378 26.2829 103.343 27.1384 103.249 28.1227ZM98.3271 27.7536L98.4326 26.0661C98.4561 24.9294 98.2451 24.027 97.7998 23.3591C97.3662 22.6911 96.7275 22.3454 95.8838 22.3219C94.4424 22.2751 93.2529 22.8844 92.3154 24.1501L90.8916 31.9899C91.3252 33.1735 92.2568 33.7887 93.6865 33.8356C94.8818 33.8708 95.8779 33.4079 96.6748 32.4469C97.4717 31.486 98.0225 29.9216 98.3271 27.7536Z" fill="url(#paint0_linear_1_4)"/>
<path d="M110.052 37.5798H105.06L108.364 18.5602H113.356L110.052 37.5798ZM108.944 13.7262C108.921 12.9411 109.179 12.2907 109.718 11.7751C110.257 11.2594 110.907 11.0016 111.669 11.0016C112.419 10.9782 113.069 11.2067 113.62 11.6872C114.171 12.1677 114.458 12.7887 114.481 13.5505C114.505 14.277 114.259 14.9098 113.743 15.4489C113.239 15.988 112.577 16.2692 111.757 16.2927C111.019 16.3161 110.368 16.0934 109.806 15.6247C109.255 15.1559 108.968 14.5231 108.944 13.7262Z" fill="url(#paint1_linear_1_4)"/>
<path d="M123.429 24.2028L127.419 18.5602H132.991L126.101 28.1227L129.95 37.5798H124.923L122.585 31.6384L118.384 37.5798H112.776L119.948 27.6305L116.274 18.5602H121.302L123.429 24.2028Z" fill="url(#paint2_linear_1_4)"/>
<path d="M77.7197 15.9024V8.73438C77.7197 5.56737 80.2871 3 83.4541 3H145.099C148.266 3 150.833 5.56737 150.833 8.73438V48.8751C150.833 52.0421 148.266 54.6094 145.099 54.6094H135.064L138.417 70.2603C138.71 71.6282 137.071 72.563 136.043 71.6141L120.728 57.4766H83.4541C80.2871 57.4766 77.7197 54.9093 77.7197 51.7422V48.8751" stroke="url(#paint3_linear_1_4)" stroke-width="4.30079"/>
<path d="M0 27.2607C0 24.1807 0.729818 21.7005 2.18945 19.8203C3.66146 17.9401 5.64062 17 8.12695 17C10.3288 17 12.042 17.7546 13.2666 19.2637L13.4893 17.3711H18.3506V36.7793C18.3506 38.5358 17.9486 40.0635 17.1445 41.3623C16.3529 42.6611 15.2334 43.6507 13.7861 44.3311C12.3389 45.0114 10.6442 45.3516 8.70215 45.3516C7.23014 45.3516 5.79525 45.0547 4.39746 44.4609C2.99967 43.8796 1.94206 43.125 1.22461 42.1973L3.59961 38.9316C4.93555 40.4284 6.55599 41.1768 8.46094 41.1768C9.88346 41.1768 10.9906 40.7933 11.7822 40.0264C12.5739 39.2718 12.9697 38.1956 12.9697 36.7979V35.7217C11.7327 37.1195 10.1061 37.8184 8.08984 37.8184C5.67773 37.8184 3.72331 36.8783 2.22656 34.998C0.742188 33.1055 0 30.6006 0 27.4834V27.2607ZM5.3623 27.6504C5.3623 29.4688 5.72721 30.8975 6.45703 31.9365C7.18685 32.9632 8.1888 33.4766 9.46289 33.4766C11.0957 33.4766 12.2646 32.8643 12.9697 31.6396V23.1973C12.2523 21.9727 11.0957 21.3604 9.5 21.3604C8.21354 21.3604 7.19922 21.8861 6.45703 22.9375C5.72721 23.9889 5.3623 25.5599 5.3623 27.6504Z" fill="#E6E6E6"/>
<path d="M31.7285 37.8184C28.7845 37.8184 26.3848 36.9154 24.5293 35.1094C22.6862 33.3034 21.7646 30.8975 21.7646 27.8916V27.3721C21.7646 25.3558 22.1543 23.556 22.9336 21.9727C23.7129 20.377 24.8138 19.1523 26.2363 18.2988C27.6712 17.4329 29.304 17 31.1348 17C33.8809 17 36.0394 17.8659 37.6104 19.5977C39.1937 21.3294 39.9854 23.7848 39.9854 26.9639V29.1533H27.2012C27.3743 30.4645 27.8939 31.516 28.7598 32.3076C29.638 33.0993 30.7451 33.4951 32.0811 33.4951C34.1468 33.4951 35.7611 32.7467 36.9238 31.25L39.5586 34.2002C38.7546 35.3382 37.666 36.2288 36.293 36.8721C34.9199 37.5029 33.3984 37.8184 31.7285 37.8184ZM31.1162 21.3418C30.0524 21.3418 29.1865 21.7005 28.5186 22.418C27.863 23.1354 27.4424 24.1621 27.2568 25.498H34.7158V25.0713C34.6911 23.8838 34.3695 22.9684 33.751 22.3252C33.1325 21.6696 32.2542 21.3418 31.1162 21.3418Z" fill="#E6E6E6"/>
<path d="M54.3281 22.3994C53.5983 22.3005 52.9551 22.251 52.3984 22.251C50.3698 22.251 49.04 22.9375 48.4092 24.3105V37.4473H43.0469V17.3711H48.1123L48.2607 19.7646C49.3369 17.9215 50.8275 17 52.7324 17C53.3262 17 53.8828 17.0804 54.4023 17.2412L54.3281 22.3994Z" fill="#E6E6E6"/>
<path d="M68.0029 37.4473C67.7555 36.9648 67.5762 36.3649 67.4648 35.6475C66.166 37.0947 64.4775 37.8184 62.3994 37.8184C60.4326 37.8184 58.7998 37.2493 57.501 36.1113C56.2145 34.9733 55.5713 33.5384 55.5713 31.8066C55.5713 29.679 56.3568 28.0462 57.9277 26.9082C59.5111 25.7702 61.7933 25.195 64.7744 25.1826H67.2422V24.0322C67.2422 23.1045 67.001 22.3623 66.5186 21.8057C66.0485 21.249 65.3001 20.9707 64.2734 20.9707C63.3704 20.9707 62.6592 21.1872 62.1396 21.6201C61.6325 22.0531 61.3789 22.6468 61.3789 23.4014H56.0166C56.0166 22.2386 56.3753 21.1624 57.0928 20.1729C57.8102 19.1833 58.8245 18.4102 60.1357 17.8535C61.4469 17.2845 62.9189 17 64.5518 17C67.0257 17 68.9863 17.6247 70.4336 18.874C71.8932 20.111 72.623 21.8551 72.623 24.1064V32.8086C72.6354 34.7135 72.9014 36.1546 73.4209 37.1318V37.4473H68.0029ZM63.5684 33.7178C64.36 33.7178 65.0898 33.5446 65.7578 33.1982C66.4258 32.8395 66.9206 32.3633 67.2422 31.7695V28.3184H65.2383C62.554 28.3184 61.1253 29.2461 60.9521 31.1016L60.9336 31.417C60.9336 32.085 61.1686 32.6354 61.6387 33.0684C62.1087 33.5013 62.752 33.7178 63.5684 33.7178Z" fill="#E6E6E6"/>
<defs>
<linearGradient id="paint0_linear_1_4" x1="83.7197" y1="11" x2="110.172" y2="55.9322" gradientUnits="userSpaceOnUse">
<stop stop-color="#485BFF"/>
<stop offset="1" stop-color="#FF59F8"/>
</linearGradient>
<linearGradient id="paint1_linear_1_4" x1="83.7197" y1="11" x2="110.172" y2="55.9322" gradientUnits="userSpaceOnUse">
<stop stop-color="#485BFF"/>
<stop offset="1" stop-color="#FF59F8"/>
</linearGradient>
<linearGradient id="paint2_linear_1_4" x1="83.7197" y1="11" x2="110.172" y2="55.9322" gradientUnits="userSpaceOnUse">
<stop stop-color="#485BFF"/>
<stop offset="1" stop-color="#FF59F8"/>
</linearGradient>
<linearGradient id="paint3_linear_1_4" x1="77.7197" y1="3" x2="137.931" y2="77.547" gradientUnits="userSpaceOnUse">
<stop stop-color="#485BFF"/>
<stop offset="1" stop-color="#FF59F8"/>
</linearGradient>
</defs>
</svg>
