<svg width="156" height="75" viewBox="0 0 156 75" fill="none" xmlns="http://www.w3.org/2000/svg">
<path d="M105.529 28.1227C105.283 30.1149 104.762 31.8844 103.965 33.4313C103.168 34.9782 102.178 36.1266 100.994 36.8766C99.8105 37.6266 98.498 37.9841 97.0566 37.9489C95.2168 37.902 93.7637 37.2165 92.6973 35.8923L90.957 44.8923H86L90.5527 18.5602L95.123 18.5427L94.7891 20.4587C96.1602 18.9118 97.7773 18.1618 99.6406 18.2087C101.504 18.2555 102.951 18.9352 103.982 20.2477C105.014 21.5485 105.564 23.318 105.635 25.5563C105.658 26.2829 105.623 27.1384 105.529 28.1227ZM100.607 27.7536L100.713 26.0661C100.736 24.9294 100.525 24.027 100.08 23.3591C99.6465 22.6911 99.0078 22.3454 98.1641 22.3219C96.7227 22.2751 95.5332 22.8844 94.5957 24.1501L93.1719 31.9899C93.6055 33.1735 94.5371 33.7887 95.9668 33.8356C97.1621 33.8708 98.1582 33.4079 98.9551 32.4469C99.752 31.486 100.303 29.9216 100.607 27.7536Z" fill="url(#paint0_linear)"/>
<path d="M112.332 37.5798H107.34L110.645 18.5602H115.637L112.332 37.5798ZM111.225 13.7262C111.201 12.9411 111.459 12.2907 111.998 11.7751C112.537 11.2594 113.188 11.0016 113.949 11.0016C114.699 10.9782 115.35 11.2067 115.9 11.6872C116.451 12.1677 116.738 12.7887 116.762 13.5505C116.785 14.277 116.539 14.9098 116.023 15.4489C115.52 15.988 114.857 16.2692 114.037 16.2927C113.299 16.3161 112.648 16.0934 112.086 15.6247C111.535 15.1559 111.248 14.5231 111.225 13.7262Z" fill="url(#paint1_linear)"/>
<path d="M125.709 24.2028L129.699 18.5602H135.271L128.381 28.1227L132.23 37.5798H127.203L124.865 31.6384L120.664 37.5798H115.057L122.229 27.6305L118.555 18.5602H123.582L125.709 24.2028Z" fill="url(#paint2_linear)"/>
<path d="M80 15.9024V8.73438C80 5.56737 82.5674 3 85.7344 3H147.379C150.546 3 153.113 5.56737 153.113 8.73438V48.8751C153.113 52.0421 150.546 54.6094 147.379 54.6094H137.344L140.698 70.2603C140.991 71.6282 139.351 72.563 138.323 71.6141L123.008 57.4766H85.7344C82.5674 57.4766 80 54.9093 80 51.7422V48.8751" stroke="url(#paint3_linear)" stroke-width="4.30079"/>
<path d="M0.280273 27.8135C0.280273 24.7334 1.01009 22.2533 2.46973 20.373C3.94173 18.4928 5.9209 17.5527 8.40723 17.5527C10.609 17.5527 12.3223 18.3073 13.5469 19.8164L13.7695 17.9238H18.6309V37.332C18.6309 39.0885 18.2288 40.6162 17.4248 41.915C16.6331 43.2139 15.5137 44.2035 14.0664 44.8838C12.6191 45.5641 10.9245 45.9043 8.98242 45.9043C7.51042 45.9043 6.07552 45.6074 4.67773 45.0137C3.27995 44.4323 2.22233 43.6777 1.50488 42.75L3.87988 39.4844C5.21582 40.9811 6.83626 41.7295 8.74121 41.7295C10.1637 41.7295 11.2708 41.346 12.0625 40.5791C12.8542 39.8245 13.25 38.7484 13.25 37.3506V36.2744C12.013 37.6722 10.3864 38.3711 8.37012 38.3711C5.95801 38.3711 4.00358 37.431 2.50684 35.5508C1.02246 33.6582 0.280273 31.1533 0.280273 28.0361V27.8135ZM5.64258 28.2031C5.64258 30.0215 6.00749 31.4502 6.7373 32.4893C7.46712 33.516 8.46908 34.0293 9.74316 34.0293C11.376 34.0293 12.5449 33.417 13.25 32.1924V23.75C12.5326 22.5254 11.376 21.9131 9.78027 21.9131C8.49382 21.9131 7.47949 22.4388 6.7373 23.4902C6.00749 24.5417 5.64258 26.1126 5.64258 28.2031Z" fill="#29292E"/>
<path d="M32.0088 38.3711C29.0648 38.3711 26.665 37.4681 24.8096 35.6621C22.9665 33.8561 22.0449 31.4502 22.0449 28.4443V27.9248C22.0449 25.9085 22.4346 24.1087 23.2139 22.5254C23.9932 20.9297 25.0941 19.7051 26.5166 18.8516C27.9515 17.9857 29.5843 17.5527 31.415 17.5527C34.1611 17.5527 36.3197 18.4186 37.8906 20.1504C39.474 21.8822 40.2656 24.3376 40.2656 27.5166V29.7061H27.4814C27.6546 31.0173 28.1742 32.0687 29.04 32.8604C29.9183 33.652 31.0254 34.0479 32.3613 34.0479C34.4271 34.0479 36.0413 33.2995 37.2041 31.8027L39.8389 34.7529C39.0348 35.891 37.9463 36.7816 36.5732 37.4248C35.2002 38.0557 33.6787 38.3711 32.0088 38.3711ZM31.3965 21.8945C30.3327 21.8945 29.4668 22.2533 28.7988 22.9707C28.1432 23.6882 27.7227 24.7148 27.5371 26.0508H34.9961V25.624C34.9714 24.4365 34.6497 23.5212 34.0312 22.8779C33.4128 22.2223 32.5345 21.8945 31.3965 21.8945Z" fill="#29292E"/>
<path d="M54.6084 22.9521C53.8786 22.8532 53.2354 22.8037 52.6787 22.8037C50.6501 22.8037 49.3203 23.4902 48.6895 24.8633V38H43.3271V17.9238H48.3926L48.541 20.3174C49.6172 18.4743 51.1077 17.5527 53.0127 17.5527C53.6064 17.5527 54.1631 17.6331 54.6826 17.7939L54.6084 22.9521Z" fill="#29292E"/>
<path d="M68.2832 38C68.0358 37.5176 67.8564 36.9176 67.7451 36.2002C66.4463 37.6475 64.7578 38.3711 62.6797 38.3711C60.7129 38.3711 59.0801 37.8021 57.7812 36.6641C56.4948 35.526 55.8516 34.0911 55.8516 32.3594C55.8516 30.2318 56.637 28.599 58.208 27.4609C59.7913 26.3229 62.0736 25.7477 65.0547 25.7354H67.5225V24.585C67.5225 23.6572 67.2812 22.915 66.7988 22.3584C66.3288 21.8018 65.5804 21.5234 64.5537 21.5234C63.6507 21.5234 62.9395 21.7399 62.4199 22.1729C61.9128 22.6058 61.6592 23.1995 61.6592 23.9541H56.2969C56.2969 22.7913 56.6556 21.7152 57.373 20.7256C58.0905 19.736 59.1048 18.9629 60.416 18.4062C61.7272 17.8372 63.1992 17.5527 64.832 17.5527C67.306 17.5527 69.2666 18.1774 70.7139 19.4268C72.1735 20.6637 72.9033 22.4079 72.9033 24.6592V33.3613C72.9157 35.2663 73.1816 36.7074 73.7012 37.6846V38H68.2832ZM63.8486 34.2705C64.6403 34.2705 65.3701 34.0973 66.0381 33.751C66.7061 33.3923 67.2008 32.916 67.5225 32.3223V28.8711H65.5186C62.8343 28.8711 61.4056 29.7988 61.2324 31.6543L61.2139 31.9697C61.2139 32.6377 61.4489 33.1882 61.9189 33.6211C62.389 34.054 63.0322 34.2705 63.8486 34.2705Z" fill="#29292E"/>
<defs>
<linearGradient id="paint0_linear" x1="86" y1="11" x2="112.452" y2="55.9322" gradientUnits="userSpaceOnUse">
<stop stop-color="#485BFF"/>
<stop offset="1" stop-color="#FF59F8"/>
</linearGradient>
<linearGradient id="paint1_linear" x1="86" y1="11" x2="112.452" y2="55.9322" gradientUnits="userSpaceOnUse">
<stop stop-color="#485BFF"/>
<stop offset="1" stop-color="#FF59F8"/>
</linearGradient>
<linearGradient id="paint2_linear" x1="86" y1="11" x2="112.452" y2="55.9322" gradientUnits="userSpaceOnUse">
<stop stop-color="#485BFF"/>
<stop offset="1" stop-color="#FF59F8"/>
</linearGradient>
<linearGradient id="paint3_linear" x1="80" y1="3" x2="140.211" y2="77.547" gradientUnits="userSpaceOnUse">
<stop stop-color="#485BFF"/>
<stop offset="1" stop-color="#FF59F8"/>
</linearGradient>
</defs>
</svg>
